<?xml version="1.0" standalone="no"?>
<!DOCTYPE svg PUBLIC "-//W3C//DTD SVG 20010904//EN"
 "http://www.w3.org/TR/2001/REC-SVG-20010904/DTD/svg10.dtd">
<svg version="1.0" xmlns="http://www.w3.org/2000/svg"
 width="300.000000pt" height="300.000000pt" viewBox="0 0 300.000000 300.000000"
 preserveAspectRatio="xMidYMid meet">
<metadata>
Created by potrace 1.10, written by Peter Selinger 2001-2011
</metadata>
<g transform="translate(0.000000,300.000000) scale(0.100000,-0.100000)"
fill="#000000" stroke="none">
<path d="M1678 2150 c-42 -39 -79 -70 -82 -70 -3 0 -4 16 -3 35 1 18 -2 35 -6
36 -5 0 -80 -63 -168 -142 l-159 -144 0 -211 0 -210 160 -147 c88 -81 164
-147 171 -147 7 0 10 55 7 184 l-3 184 55 -48 c30 -26 66 -60 79 -74 14 -14
28 -26 33 -26 4 0 8 191 8 425 0 234 -3 425 -7 425 -5 0 -42 -32 -85 -70z m72
-356 l0 -386 -75 70 -75 69 -1 249 0 248 73 68 c40 37 74 67 76 68 1 0 2 -174
2 -386z m-180 287 c0 -25 -22 -49 -145 -161 -138 -125 -145 -130 -145 -101 0
25 20 48 143 160 78 72 143 131 145 131 1 0 2 -13 2 -29z m-2 -605 l-3 -186
-142 131 -143 131 0 102 0 101 143 131 142 130 3 -177 c1 -98 1 -261 0 -363z
m2 -254 c0 -33 -1 -33 -124 83 -68 64 -134 123 -145 131 -14 11 -21 26 -21 50
l0 35 145 -133 c130 -120 144 -136 145 -166z"/>
<path d="M766 1023 c19 -80 35 -92 51 -40 l11 32 7 -32 c9 -40 30 -43 39 -5 3
15 8 37 12 50 4 12 2 22 -4 22 -5 0 -13 -17 -18 -37 l-8 -38 -10 38 c-12 45
-27 43 -39 -4 -10 -35 -11 -34 -21 14 -4 15 -11 27 -16 27 -6 0 -8 -11 -4 -27z"/>
<path d="M920 1000 l0 -50 35 0 c19 0 35 5 35 10 0 6 -11 10 -25 10 -14 0 -25
5 -25 10 0 6 12 10 26 10 14 0 23 4 19 10 -3 6 -15 10 -26 10 -10 0 -19 5 -19
10 0 6 11 10 25 10 14 0 25 5 25 10 0 6 -16 10 -35 10 l-35 0 0 -50z"/>
<path d="M1020 1000 l0 -50 36 0 c21 0 33 4 29 10 -3 6 -15 10 -26 10 -16 0
-19 7 -19 40 0 22 -4 40 -10 40 -5 0 -10 -22 -10 -50z"/>
<path d="M1110 1000 l0 -50 36 0 c21 0 33 4 29 10 -3 6 -15 10 -26 10 -16 0
-19 7 -19 40 0 22 -4 40 -10 40 -5 0 -10 -22 -10 -50z"/>
<path d="M1250 1000 c0 -27 5 -50 10 -50 6 0 10 6 10 14 0 8 10 16 23 18 14 2
23 11 25 27 4 26 -12 41 -45 41 -21 0 -23 -5 -23 -50z"/>
<path d="M1350 1000 c0 -27 5 -50 10 -50 6 0 10 9 10 20 0 11 4 20 10 20 5 0
14 -9 20 -20 6 -11 15 -20 21 -20 6 0 7 6 1 17 -7 11 -6 23 1 34 15 24 -7 49
-44 49 -28 0 -29 -2 -29 -50z m60 15 c0 -8 -9 -15 -20 -15 -11 0 -20 7 -20 15
0 8 9 15 20 15 11 0 20 -7 20 -15z"/>
<path d="M1465 1030 c-15 -16 -17 -26 -9 -48 8 -22 15 -27 44 -27 29 0 36 5
44 27 8 22 6 32 -9 48 -10 11 -26 20 -35 20 -9 0 -25 -9 -35 -20z m60 -30 c0
-18 -6 -26 -23 -28 -24 -4 -38 18 -28 44 3 9 15 14 28 12 17 -2 23 -10 23 -28z"/>
<path d="M1620 1000 l0 -50 41 0 c24 0 38 4 34 10 -3 6 -17 10 -31 10 -13 0
-24 5 -24 10 0 6 11 10 25 10 14 0 25 5 25 10 0 6 -11 10 -25 10 -14 0 -25 5
-25 10 0 6 14 10 31 10 17 0 28 4 24 10 -3 6 -22 10 -41 10 l-34 0 0 -50z"/>
<path d="M1724 1025 c12 -46 26 -75 36 -75 11 0 26 33 36 78 5 26 5 26 -10 8
-9 -11 -16 -28 -16 -39 0 -27 -17 -11 -25 23 -4 17 -11 30 -17 30 -6 0 -8 -10
-4 -25z"/>
<path d="M1830 1000 l0 -50 41 0 c24 0 38 4 34 10 -3 6 -17 10 -31 10 -13 0
-24 5 -24 10 0 6 11 10 25 10 14 0 25 5 25 10 0 6 -11 10 -25 10 -14 0 -25 5
-25 10 0 6 14 10 31 10 17 0 28 4 24 10 -3 6 -22 10 -41 10 l-34 0 0 -50z"/>
<path d="M1930 1000 c0 -55 17 -69 22 -17 l3 32 20 -32 c10 -18 24 -33 30 -33
12 0 11 90 -1 91 -5 1 -8 -13 -6 -30 4 -40 -1 -39 -28 4 -12 19 -26 35 -31 35
-5 0 -9 -22 -9 -50z"/>
<path d="M2040 1040 c0 -5 7 -10 15 -10 11 0 15 -11 15 -40 0 -22 5 -40 10
-40 6 0 10 18 10 40 0 29 4 40 15 40 8 0 15 5 15 10 0 6 -18 10 -40 10 -22 0
-40 -4 -40 -10z"/>
<path d="M2150 1035 c-16 -19 3 -45 31 -45 21 0 25 -15 9 -25 -6 -4 -18 -1
-26 6 -16 13 -30 6 -19 -10 3 -6 20 -11 36 -11 36 0 52 28 25 44 -10 6 -25 17
-34 24 -15 12 -13 13 16 8 33 -6 45 7 16 18 -25 10 -41 7 -54 -9z"/>
</g>
</svg>
